<svg width="390" height="283" viewBox="0 0 390 283" fill="none" xmlns="http://www.w3.org/2000/svg">
<g opacity="0.3">
<path d="M21.9405 528.096C13.1317 530.456 4.5759 532.532 -3.68188 534.307C-49.0182 544.059 -83.9259 544.666 -107.436 536.107C-131.488 527.355 -142.924 509.094 -141.43 481.829C-136.89 399.058 -125.065 345.343 -117.24 309.802C-113.719 293.804 -110.937 281.167 -110.144 271.609C-108.827 255.702 -91.6076 230.438 -65.2091 205.674C-36.7989 179.027 -4.16415 158.755 24.3318 150.058C63.6319 138.064 103.67 115.105 130.336 97.9552C161.399 77.9783 192.701 53.9628 214.068 33.7127C227.86 20.6397 244.306 15.9143 261.621 20.0463C291.604 27.2029 320.318 59.9323 336.558 105.459C344.253 127.037 352.212 149.353 358.525 171.252C365.507 195.465 369.658 216.554 371.219 235.72C373.079 258.606 371.397 279.429 366.077 299.375C360.136 321.645 349.824 342.343 334.551 362.656C308.468 397.346 224.758 449.558 130.987 489.626C92.6267 506.015 55.4454 519.115 21.9397 528.093L21.9405 528.096ZM237.613 21.1884C229.468 23.3708 221.771 27.8144 214.767 34.4533C193.356 54.7468 161.999 78.805 130.888 98.8123C104.168 115.994 64.0417 139.005 24.628 151.033C-3.72169 159.687 -36.215 179.872 -64.5151 206.42C-90.7375 231.018 -107.835 256.031 -109.132 271.698C-109.93 281.328 -112.719 293.992 -116.248 310.026C-124.066 345.538 -135.877 399.2 -140.415 481.889C-141.882 508.654 -130.67 526.576 -107.087 535.16C-83.7605 543.648 -49.0418 543.029 -3.8937 533.32C35.7007 524.805 82.2038 509.375 130.589 488.699C224.215 448.695 307.754 396.617 333.741 362.053C348.934 341.847 359.19 321.265 365.098 299.12C370.388 279.287 372.062 258.577 370.209 235.809C366.736 193.091 350.907 148.718 335.603 105.806C319.48 60.598 291.042 28.1166 261.387 21.0406C253.198 19.0852 245.209 19.1564 237.614 21.1916L237.613 21.1884Z" fill="#84B5FF"/>
<path d="M22.9735 510.135C16.0055 512.002 9.21901 513.67 2.63593 515.129C-38.8807 524.331 -70.8386 525.117 -92.357 517.464C-114.108 509.727 -124.55 493.437 -123.393 469.046C-120.441 395.35 -110.42 344.282 -103.79 310.494C-100.678 294.63 -98.2207 282.101 -97.4709 272.435C-96.2535 256.81 -80.4749 232.697 -56.2918 209.5C-30.397 184.661 -0.107269 165.525 26.8109 156.995C63.0148 145.754 99.9538 124.843 124.564 109.285C153.478 91.0041 181.662 69.9078 201.89 51.3985C214.658 39.7204 229.817 35.634 245.734 39.5806C273.362 46.4293 299.768 76.5453 314.643 118.183C328.715 157.451 343.268 198.058 346.471 238.079C348.159 259.158 346.602 278.355 341.711 296.764C336.258 317.299 326.81 336.394 312.838 355.139C288.952 387.398 212.138 436.022 126.044 473.385C89.7161 489.149 54.5149 501.687 22.9711 510.139L22.9735 510.135ZM222.944 40.5394C215.689 42.4836 208.82 46.3551 202.537 52.1005C182.27 70.6449 154.037 91.7823 125.078 110.089C100.416 125.679 63.4005 146.631 27.1002 157.905C0.317692 166.391 -29.8363 185.445 -55.6276 210.187C-79.649 233.228 -95.315 257.109 -96.5155 272.509C-97.2677 282.231 -99.7325 294.783 -102.848 310.675C-109.474 344.439 -119.483 395.458 -122.433 469.087C-123.567 493.013 -113.34 508.985 -92.0304 516.564C-70.6863 524.155 -38.9035 523.357 2.43484 514.196C38.7617 506.146 81.3756 491.727 125.671 472.504C211.628 435.203 288.28 386.707 312.078 354.565C325.982 335.919 335.375 316.93 340.797 296.515C345.66 278.212 347.207 259.123 345.526 238.15C342.332 198.253 327.802 157.707 313.749 118.496C298.978 77.1561 272.831 47.272 245.507 40.4993C237.74 38.5745 230.15 38.6051 222.944 40.5361L222.944 40.5394Z" fill="#84B5FF"/>
<path d="M24.0747 492.192C18.915 493.574 13.8722 494.831 8.94965 495.961C-28.7466 504.615 -57.7587 505.578 -77.2791 498.829C-96.7293 492.107 -106.174 477.785 -105.35 456.259C-103.962 391.163 -96.0075 344.56 -90.1983 310.536C-87.5616 295.094 -85.4817 282.897 -84.789 273.254C-83.6538 257.675 -69.6638 235.27 -47.3658 213.317C-23.9756 190.287 3.96908 172.287 29.2996 163.927C89.3059 144.914 158.109 96.7878 189.719 69.0798C201.462 58.7969 215.341 55.3476 229.862 59.1078C255.134 65.6496 279.225 93.1573 292.736 130.895C304.959 164.808 318.809 203.247 321.731 240.429C323.244 259.703 321.815 277.272 317.357 294.143C312.39 312.944 303.811 330.433 291.133 347.613C280.249 362.579 257.788 381.179 226.183 401.395C195.826 420.815 158.505 440.613 121.104 457.144C86.8326 472.291 53.624 484.274 24.078 492.191L24.0747 492.192ZM208.253 59.8801C201.893 61.5842 195.856 64.886 190.304 69.7493C158.641 97.5065 89.7044 145.721 29.5723 164.775C4.37085 173.093 -23.447 191.017 -46.7435 213.952C-68.8888 235.755 -82.7813 257.949 -83.9028 273.317C-84.5981 283.004 -86.6834 295.219 -89.3238 310.687C-95.1261 344.684 -103.073 391.25 -104.463 456.288C-105.27 477.381 -96.0265 491.408 -76.9893 497.988C-57.6274 504.682 -28.783 503.708 8.74796 495.09C41.8054 487.5 80.5353 474.097 120.738 456.329C158.101 439.814 195.376 420.039 225.698 400.643C257.207 380.487 279.584 361.969 290.407 347.086C303.021 329.997 311.552 312.605 316.487 293.918C320.919 277.144 322.342 259.671 320.836 240.501C317.925 203.438 304.094 165.057 291.889 131.199C278.476 93.7362 254.621 66.4419 229.631 59.9717C222.268 58.0646 215.074 58.0524 208.25 59.8809L208.253 59.8801Z" fill="#84B5FF"/>
<path d="M25.2585 474.272C21.8612 475.182 18.5277 476.03 15.2473 476.814C-18.6293 484.918 -44.6907 486.064 -62.2164 480.219C-79.3615 474.501 -87.8042 462.14 -87.3123 443.481C-87.4965 386.383 -81.1254 341.952 -76.4722 309.512C-74.4672 295.532 -72.7359 283.46 -72.1135 274.077C-71.0764 258.773 -58.49 237.486 -38.4496 217.14C-17.5492 195.922 8.04871 179.052 31.7809 170.861C55.5179 163.16 83.6104 149.701 113.03 131.936C136.644 117.677 160.156 101.212 177.543 86.7622C188.26 77.8678 200.866 75.0572 213.998 78.64C236.906 84.8873 258.678 109.784 270.82 143.617C283.694 179.092 294.547 211.043 296.983 242.788C298.324 260.256 297.017 276.202 292.992 291.536C288.512 308.599 280.801 324.487 269.417 340.101C259.568 353.935 239.294 371.08 210.785 389.683C183.511 407.479 149.901 425.68 116.143 440.934C83.953 455.477 52.7667 466.911 25.2546 474.283L25.2585 474.272ZM193.531 79.2041C188.074 80.6664 182.882 83.4058 178.071 87.3981C160.656 101.873 137.105 118.366 113.458 132.644C83.984 150.441 55.8329 163.93 32.0436 171.645C8.43715 179.795 -17.0446 196.589 -37.8561 217.719C-57.7617 237.928 -70.2603 259.02 -71.2825 274.131C-71.9068 283.546 -73.6412 295.633 -75.6492 309.628C-80.2987 342.042 -86.6655 386.437 -86.4796 443.489C-86.9617 461.753 -78.7106 473.843 -61.9512 479.431C-44.5716 485.226 -18.6631 484.072 15.059 476.007C44.8536 468.874 79.6919 456.486 115.807 440.166C149.528 424.929 183.1 406.752 210.337 388.977C238.759 370.432 258.955 353.36 268.748 339.604C280.073 324.072 287.739 308.278 292.194 291.316C296.194 276.073 297.493 260.216 296.161 242.844C293.732 211.206 282.898 179.312 270.046 143.891C257.991 110.308 236.433 85.6091 213.783 79.433C206.814 77.5323 199.992 77.4696 193.537 79.1991L193.531 79.2041Z" fill="#84B5FF"/>
<path d="M26.5519 456.392C24.8614 456.845 23.1904 457.279 21.5321 457.695C-8.52402 465.251 -31.6388 466.578 -47.1706 461.635C-62.0091 456.913 -69.4481 446.507 -69.2749 430.699C-71.1121 380.851 -66.2034 337.999 -62.619 306.711C-61.1979 294.305 -59.9687 283.59 -59.4407 274.901C-58.4851 259.633 -47.5828 239.974 -29.5327 220.962C-11.1025 201.551 12.1471 185.818 34.2605 177.799C78.3998 163.069 133.16 129.448 165.365 104.445C175.067 96.9293 186.405 94.7598 198.151 98.1709C218.684 104.134 238.134 126.417 248.907 156.331C259.967 186.556 270.072 216.092 272.236 245.136C273.404 260.795 272.223 275.118 268.63 288.914C264.639 304.243 257.793 318.522 247.708 332.573C238.895 345.275 220.802 360.975 195.391 377.966C171.201 394.141 141.295 410.747 111.183 424.726C81.1082 438.685 51.978 449.579 26.5528 456.395L26.5519 456.392ZM178.77 98.5073C174.231 99.7234 169.89 101.909 165.838 105.047C133.584 130.088 78.7299 163.765 34.5163 178.518C12.5213 186.495 -10.6211 202.158 -28.9713 221.488C-46.9012 240.372 -57.7244 259.856 -58.6682 274.946C-59.1983 283.653 -60.4281 294.379 -61.8499 306.795C-65.4339 338.059 -70.3373 380.878 -68.5032 430.688C-68.6709 446.137 -61.4143 456.295 -46.9324 460.902C-31.5383 465.801 -8.56492 464.471 21.3497 456.949C47.8774 450.272 78.834 438.895 110.862 424.024C140.937 410.062 170.807 393.48 194.966 377.324C220.3 360.384 238.321 344.756 247.084 332.127C257.12 318.152 263.924 303.954 267.892 288.72C271.464 275.006 272.636 260.766 271.477 245.193C269.32 216.244 259.231 186.764 248.192 156.592C237.5 126.906 218.25 104.803 197.946 98.9088C191.348 96.9927 184.883 96.8763 178.775 98.5129L178.77 98.5073Z" fill="#84B5FF"/>
<path d="M27.9943 438.56L27.8079 438.61C1.57314 445.622 -18.595 447.129 -32.1322 443.091C-44.6667 439.355 -51.093 430.884 -51.2315 417.916C-54.9502 374.465 -51.3363 332.012 -48.6971 301.016C-47.8707 291.308 -47.1553 282.926 -46.7563 275.718C-45.8974 260.704 -36.3638 242.136 -20.6074 224.779C-4.62359 207.172 16.2834 192.571 36.7509 184.727C55.7699 178.16 77.5491 168.017 101.499 154.582C119.513 144.475 138.355 132.644 153.198 122.118C161.89 115.976 171.967 114.449 182.347 117.704C200.497 123.395 217.607 143.067 226.999 169.043C236.336 194.289 245.606 221.142 247.496 247.486C248.488 261.339 247.435 274.032 244.273 286.298C240.769 299.888 234.791 312.566 226 325.048C210.58 347.991 162.437 381.551 106.211 408.55C78.3033 421.953 51.2622 432.326 27.9943 438.56ZM163.94 117.78C160.334 118.746 156.866 120.389 153.601 122.697C138.741 133.234 119.872 145.083 101.839 155.199C77.8561 168.653 56.0352 178.81 36.9877 185.388C16.632 193.192 -4.17518 207.721 -20.088 225.253C-35.7387 242.494 -45.2028 260.903 -46.0552 275.758C-46.4558 282.973 -47.1694 291.362 -47.9982 301.074C-50.637 332.046 -54.2465 374.462 -50.5301 417.878C-50.3928 430.528 -44.1361 438.772 -31.9325 442.411C-18.5216 446.409 1.51681 444.902 27.6241 437.924L27.8104 437.874C51.0359 431.651 78.032 421.294 105.902 407.908C162.026 380.957 210.051 347.495 225.414 324.642C234.16 312.224 240.102 299.622 243.586 286.114C246.727 273.927 247.775 261.306 246.79 247.532C244.907 221.28 235.652 194.483 226.334 169.281C217.013 143.506 200.077 123.998 182.134 118.374C175.878 116.412 169.73 116.225 163.946 117.775L163.94 117.78Z" fill="#84B5FF"/>
<path d="M29.5413 420.844C9.32083 426.262 -6.36145 427.533 -17.1161 424.619C-27.3422 421.848 -32.7511 415.303 -33.1949 405.158C-39.3506 367.288 -36.7644 323.027 -34.8763 290.705C-34.5813 285.632 -34.3013 280.844 -34.0838 276.542C-33.3053 261.542 -25.3519 244.518 -11.6908 228.602C2.08634 212.556 20.1695 199.437 39.2292 191.661C52.5594 186.857 89.1377 172.199 141.022 139.8C148.717 135.021 157.554 134.138 166.579 137.256C182.321 142.692 197.074 159.746 205.082 181.758C212.786 202.308 221.139 226.21 222.746 249.839C224.447 274.812 218.408 296.951 204.285 317.525C197.533 327.984 183.799 340.803 164.579 354.595C146.272 367.73 124.365 380.809 101.226 392.419C77.3308 404.407 54.1071 413.803 34.0652 419.586C32.533 420.028 31.0226 420.447 29.5381 420.845L29.5413 420.844ZM149.02 137.003C146.372 137.712 143.808 138.83 141.365 140.346C133.064 145.529 116.135 155.818 96.0292 166.476C74.9202 177.668 55.8911 186.342 39.4633 192.26C20.5081 199.994 2.51246 213.048 -11.197 229.019C-24.7646 244.827 -32.6636 261.713 -33.4347 276.571C-33.6522 280.873 -33.9313 285.665 -34.2255 290.74C-36.1131 323.038 -38.6973 367.267 -32.5485 405.073L-32.5454 405.11C-32.1231 414.952 -26.8741 421.306 -16.9434 423.995C-5.67487 427.048 11.9046 425.31 33.8914 418.964C53.8974 413.19 77.0803 403.813 100.942 391.841C124.049 380.246 145.929 367.184 164.21 354.071C183.367 340.327 197.04 327.566 203.755 317.17C217.798 296.715 223.799 274.706 222.111 249.887C220.509 226.343 212.173 202.493 204.485 181.988C196.541 160.148 181.94 143.246 166.376 137.871C160.413 135.809 154.532 135.533 149.029 137.007L149.02 137.003Z" fill="#84B5FF"/>
<path d="M31.7542 403.166C17.3965 407.013 5.79666 408.087 -2.11124 406.263C-10.0529 404.431 -14.4396 399.765 -15.1534 392.393C-25.0811 359.567 -22.5057 301.964 -21.4089 277.362C-19.9831 246.624 5.97337 214.232 41.7109 198.595C70.5167 187.641 103.375 170.65 123.008 160.501C125.092 159.424 127.05 158.413 128.857 157.48C135.573 154.045 143.2 153.826 150.901 156.84C164.201 162.045 176.563 176.465 183.169 194.476C190.132 212.706 196.746 232.315 198.001 252.194C199.339 273.406 194.295 292.315 182.574 310.005C171.319 328.376 137.434 354.417 96.246 376.344C76.4416 386.885 57.105 395.288 40.3272 400.645C37.373 401.587 34.5115 402.431 31.7518 403.17L31.7542 403.166ZM133.941 156.142C132.29 156.585 130.683 157.205 129.123 158.001C127.315 158.93 125.36 159.941 123.277 161.02C103.635 171.175 70.7588 188.178 41.9334 199.138C6.40292 214.684 -19.4068 246.865 -20.823 277.39C-21.9227 301.969 -24.4954 359.529 -14.5842 392.254L-14.5693 392.31C-13.8935 399.423 -9.65901 403.926 -1.97945 405.696C7.34781 407.847 21.9187 405.907 40.1537 400.089C56.8997 394.744 76.2054 386.357 95.9756 375.831C137.074 353.95 170.873 327.991 182.084 309.695C208.112 270.414 196.623 231.343 182.627 194.687C176.074 176.823 163.838 162.534 150.691 157.39C144.94 155.139 139.24 154.73 133.946 156.148L133.941 156.142Z" fill="#84B5FF"/>
<path d="M34.3262 385.795C25.55 388.147 18.2332 388.987 12.9278 388.125C7.21474 387.194 3.83941 384.341 2.89672 379.646C-2.3428 371.392 -5.93346 355.886 -7.78108 333.557C-9.12641 317.288 -9.4735 297.107 -8.72976 278.184C-7.49151 247.818 12.2936 220.659 44.1969 205.531C55.5568 200.894 67.3168 195.827 78.6904 190.927C93.4009 184.591 107.295 178.609 116.695 175.159C124.617 172.287 133.678 174.229 142.208 180.624C150.295 186.686 157.235 196.368 161.259 207.189C170.922 231.832 172.746 245.441 173.258 254.545C174.237 271.987 170.183 287.668 160.866 302.48C151.64 318.654 124.997 340.83 91.331 360.341C69.8269 372.806 49.8063 381.651 34.327 385.798L34.3262 385.795ZM118.595 175.109C118.017 175.264 117.445 175.445 116.876 175.65C107.488 179.093 93.6035 185.072 78.8996 191.407C67.5227 196.308 55.7585 201.372 44.4084 206.007C12.6982 221.044 -6.978 248.034 -8.20642 278.201C-8.948 297.106 -8.60379 317.264 -7.26043 333.512C-5.41854 355.794 -1.84124 371.237 3.36484 379.405L3.39018 379.447L3.40243 379.493C4.28255 383.981 7.51299 386.712 13.0104 387.609C27.5594 389.982 57.4701 379.359 91.0657 359.887C124.656 340.42 151.228 318.32 160.415 302.212C169.679 287.488 173.705 271.909 172.734 254.577C171.765 237.321 165.831 220.289 160.767 207.38C156.78 196.644 149.901 187.047 141.893 181.045C134.122 175.22 125.921 173.149 118.596 175.112L118.595 175.109Z" fill="#84B5FF"/>
<path d="M37.6403 369.009C34.0108 369.982 30.8585 370.473 28.3002 370.433C24.5582 370.372 22.0951 369.197 20.9811 366.935C13.0528 363.636 8.88141 346.342 6.77652 332.391C4.40385 316.657 3.34617 296.7 3.94437 279C4.47852 263.768 8.11445 251.035 15.0625 240.069C22.1586 228.871 32.4996 219.843 46.6778 212.461C68.5081 202.627 91.2188 194.927 104.545 192.841C111.041 191.854 118.276 194.292 124.915 199.702C131.126 204.765 136.386 212.127 139.342 219.903C147.671 240.3 155.174 267.258 139.153 294.953C132.02 308.826 112.446 327.276 86.7986 344.289C68.0554 356.724 50.0623 365.681 37.637 369.01L37.6403 369.009ZM93.2508 195.801C80.2238 199.292 63.3038 205.478 46.8834 212.875C32.7906 220.209 22.5095 229.187 15.4574 240.314C8.55333 251.208 4.93914 263.865 4.41013 279.012C3.28599 312.092 7.76571 361.117 21.2389 366.537L21.3215 366.571L21.3606 366.652C22.3725 368.793 24.7106 369.907 28.308 369.966C39.5436 370.149 62.4027 359.916 86.5466 343.898C112.131 326.926 131.65 308.544 138.752 294.724C154.677 267.195 147.204 240.365 138.916 220.067L138.914 220.06C135.985 212.357 130.774 205.062 124.623 200.05C118.086 194.721 110.98 192.322 104.616 193.288C101.343 193.801 97.503 194.655 93.249 195.795L93.2508 195.801Z" fill="#84B5FF"/>
<path d="M42.9458 353.823C41.3795 354.243 40.1065 354.37 39.1811 354.173C36.6701 355.252 34.2664 355.032 32.0376 353.528C25.5139 349.127 21.7696 334.8 19.7753 323.551C17.4023 310.17 16.2281 293.82 16.6283 279.814C17.0899 263.972 19.3607 252.893 23.9922 243.889C28.9299 234.288 36.9334 226.502 49.1718 219.389C63.3459 212.005 80.3192 208.528 92.4168 210.529C103.274 212.372 113.665 223.202 117.436 232.609C125.882 251.874 125.886 270.316 117.452 287.416C114.458 294.291 109.01 302.081 101.271 310.566C94.5694 317.912 86.3181 325.558 77.3995 332.675C63.4406 343.818 50.131 351.891 42.9473 353.816L42.9458 353.823ZM39.1397 353.757L39.2032 353.772C40.0926 353.978 41.3288 353.857 42.8558 353.448C58.6686 349.211 105.486 313.87 117.083 287.256C125.467 270.257 125.46 251.931 117.061 232.776L117.059 232.769C113.328 223.463 103.063 212.75 92.3422 210.931C80.3253 208.943 63.4494 212.404 49.3551 219.746C37.1923 226.814 29.2405 234.544 24.3369 244.077C19.7357 253.024 17.4787 264.049 17.0177 279.829C16.6179 293.81 17.7941 310.128 20.161 323.486C22.1416 334.658 25.8472 348.88 32.2514 353.201C34.3772 354.634 36.673 354.831 39.0728 353.782L39.1323 353.756L39.1397 353.757Z" fill="#84B5FF"/>
<path d="M50.8359 345.679C49.2696 346.098 47.7426 346.01 46.2628 345.405C42.5534 343.896 37.2771 338.317 33.1936 320.33C30.4567 308.272 29.0014 293.436 29.2985 280.642C29.649 265.523 30.068 255.76 32.9068 247.73C35.8428 239.421 41.2715 233.222 51.6506 226.337C57.3696 222.542 63.4662 221.451 69.7658 223.094C83.3878 226.65 93.6927 241.775 95.5139 245.328C98.9152 251.967 99.8495 260.11 98.2885 269.534C96.9438 277.647 93.7587 286.726 88.8185 296.528C79.8897 314.24 66.6774 331.269 57.2915 341.298C55.0818 343.659 52.9229 345.123 50.8368 345.682L50.8359 345.679ZM58.837 223.389C56.45 224.028 54.1163 225.102 51.8375 226.616C41.5275 233.458 36.1341 239.606 33.224 247.841C30.4049 255.827 29.9855 265.562 29.6369 280.65C29.0953 303.976 34.7483 340.349 46.3898 345.095C49.695 346.443 53.2778 345.087 57.0406 341.068C66.4103 331.057 79.5993 314.059 88.5114 296.375C93.4356 286.606 96.6114 277.558 97.9477 269.479C99.4968 260.127 98.5743 252.054 95.2086 245.484C93.4018 241.958 83.1759 226.945 69.6752 223.423C65.979 222.459 62.3529 222.45 58.8314 223.394L58.837 223.389Z" fill="#84B5FF"/>
</g>
</svg>
