<svg width="390" height="199" viewBox="0 0 390 199" fill="none" xmlns="http://www.w3.org/2000/svg">
<g opacity="0.3">
<path d="M181.941 160.096C173.132 162.456 164.576 164.532 156.318 166.307C110.982 176.059 76.0741 176.666 52.5643 168.107C28.5118 159.355 17.0757 141.094 18.57 113.829C23.1105 31.0581 34.9352 -22.6571 42.7596 -58.1982C46.2813 -74.1955 49.0633 -86.8327 49.856 -96.3911C51.1729 -112.298 68.3924 -137.562 94.7909 -162.326C123.201 -188.973 155.836 -209.245 184.332 -217.942C223.632 -229.936 263.67 -252.895 290.336 -270.045C321.399 -290.022 352.701 -314.037 374.068 -334.287C387.86 -347.36 404.306 -352.086 421.621 -347.954C451.604 -340.797 480.318 -308.068 496.558 -262.541C504.253 -240.963 512.212 -218.647 518.525 -196.748C525.507 -172.535 529.658 -151.446 531.219 -132.28C533.079 -109.394 531.397 -88.5706 526.077 -68.6247C520.136 -46.3553 509.824 -25.6566 494.551 -5.34449C468.468 29.3463 384.758 81.5582 290.987 121.626C252.627 138.015 215.445 151.115 181.94 160.093L181.941 160.096ZM397.613 -346.812C389.468 -344.629 381.771 -340.186 374.767 -333.547C353.356 -313.253 321.999 -289.195 290.888 -269.188C264.168 -252.006 224.042 -228.995 184.628 -216.967C156.278 -208.313 123.785 -188.128 95.4849 -161.58C69.2625 -136.982 52.1653 -111.969 50.8682 -96.3016C50.0701 -86.6718 47.2812 -74.0083 43.752 -57.9739C35.9336 -22.4624 24.1228 31.2 19.5851 113.889C18.1178 140.654 29.3298 158.576 52.9131 167.16C76.2395 175.648 110.958 175.029 156.106 165.32C195.701 156.805 242.204 141.375 290.589 120.699C384.215 80.6952 467.754 28.6167 493.741 -5.94688C508.934 -26.1535 519.19 -46.7355 525.098 -68.8805C530.388 -88.7134 532.062 -109.423 530.209 -132.191C526.736 -174.909 510.907 -219.282 495.603 -262.194C479.48 -307.402 451.042 -339.883 421.387 -346.959C413.198 -348.915 405.209 -348.844 397.614 -346.808L397.613 -346.812Z" fill="#84B5FF"/>
<path d="M182.973 142.135C176.006 144.002 169.219 145.67 162.636 147.129C121.119 156.331 89.1614 157.117 67.643 149.465C45.8917 141.727 35.4499 125.438 36.6069 101.046C39.5592 27.3504 49.5805 -23.7175 56.2098 -57.5062C59.3223 -73.3694 61.7793 -85.8984 62.5291 -95.5644C63.7465 -111.189 79.5251 -135.303 103.708 -158.5C129.603 -183.339 159.893 -202.475 186.811 -211.004C223.015 -222.246 259.954 -243.157 284.564 -258.715C313.478 -276.996 341.662 -298.092 361.89 -316.601C374.658 -328.279 389.817 -332.366 405.734 -328.419C433.362 -321.571 459.768 -291.455 474.643 -249.817C488.715 -210.548 503.268 -169.942 506.471 -129.921C508.159 -108.842 506.602 -89.645 501.711 -71.2359C496.258 -50.7011 486.81 -31.6064 472.838 -12.8614C448.952 19.3986 372.138 68.0224 286.044 105.385C249.716 121.149 214.515 133.687 182.971 142.139L182.973 142.135ZM382.944 -327.46C375.689 -325.516 368.82 -321.645 362.537 -315.899C342.27 -297.355 314.037 -276.218 285.078 -257.911C260.416 -242.321 223.401 -221.369 187.1 -210.095C160.318 -201.609 130.164 -182.555 104.372 -157.813C80.351 -134.772 64.685 -110.891 63.4845 -95.4912C62.7323 -85.7686 60.2675 -73.2164 57.1521 -57.3245C50.5265 -23.5613 40.5167 27.458 37.5674 101.087C36.4331 125.013 46.6602 140.986 67.9696 148.565C89.3137 156.155 121.096 155.357 162.435 146.196C198.762 138.146 241.376 123.727 285.671 104.505C371.628 67.2032 448.28 18.7068 472.078 -13.4351C485.982 -32.0813 495.375 -51.07 500.797 -71.4845C505.66 -89.7881 507.207 -108.877 505.526 -129.85C502.332 -169.747 487.802 -210.293 473.749 -249.504C458.978 -290.844 432.831 -320.728 405.507 -327.501C397.74 -329.425 390.15 -329.395 382.944 -327.464L382.944 -327.46Z" fill="#84B5FF"/>
<path d="M184.075 124.192C178.915 125.574 173.872 126.831 168.95 127.961C131.253 136.615 102.241 137.578 82.7209 130.829C63.2707 124.107 53.8257 109.785 54.6501 88.2595C56.0375 23.1627 63.9925 -23.4402 69.8017 -57.4643C72.4384 -72.9059 74.5183 -85.1028 75.211 -94.7464C76.3462 -110.325 90.3362 -132.73 112.634 -154.683C136.024 -177.713 163.969 -195.713 189.3 -204.073C249.306 -223.086 318.109 -271.212 349.719 -298.92C361.462 -309.203 375.341 -312.652 389.862 -308.892C415.134 -302.35 439.225 -274.843 452.736 -237.105C464.959 -203.192 478.809 -164.753 481.731 -127.571C483.244 -108.297 481.815 -90.7281 477.357 -73.8565C472.39 -55.0555 463.811 -37.5666 451.133 -20.387C440.249 -5.42125 417.788 13.1786 386.183 33.3953C355.826 52.8154 318.505 72.6133 281.104 89.1444C246.833 104.291 213.624 116.274 184.078 124.191L184.075 124.192ZM368.253 -308.12C361.893 -306.416 355.856 -303.114 350.304 -298.251C318.641 -270.493 249.704 -222.279 189.572 -203.225C164.371 -194.907 136.553 -176.983 113.256 -154.048C91.1112 -132.245 77.2187 -110.051 76.0972 -94.6827C75.4019 -84.9964 73.3166 -72.7805 70.6762 -57.3134C64.8739 -23.3157 56.9266 23.2501 55.5374 88.2879C54.7304 109.381 63.9735 123.408 83.0107 129.988C102.373 136.682 131.217 135.708 168.748 127.09C201.805 119.5 240.535 106.097 280.738 88.3285C318.101 71.8144 355.376 52.0395 385.698 32.6429C417.207 12.4869 439.584 -6.03105 450.407 -20.9137C463.021 -38.0028 471.552 -55.3949 476.487 -74.0821C480.919 -90.8556 482.342 -108.329 480.836 -127.499C477.925 -164.562 464.094 -202.943 451.889 -236.801C438.476 -274.264 414.621 -301.558 389.631 -308.028C382.268 -309.935 375.074 -309.948 368.25 -308.119L368.253 -308.12Z" fill="#84B5FF"/>
<path d="M185.258 106.272C181.861 107.182 178.528 108.03 175.247 108.814C141.371 116.918 115.309 118.064 97.7836 112.219C80.6385 106.501 72.1958 94.1403 72.6877 75.4811C72.5035 18.383 78.8746 -26.0481 83.5278 -58.4879C85.5328 -72.4681 87.2641 -84.54 87.8865 -93.9232C88.9236 -109.227 101.51 -130.514 121.55 -150.86C142.451 -172.078 168.049 -188.948 191.781 -197.139C215.518 -204.84 243.61 -218.299 273.03 -236.064C296.644 -250.323 320.156 -266.788 337.543 -281.238C348.26 -290.132 360.866 -292.943 373.998 -289.36C396.906 -283.113 418.678 -258.216 430.82 -224.383C443.694 -188.908 454.547 -156.957 456.983 -125.212C458.324 -107.744 457.017 -91.7976 452.992 -76.4637C448.512 -59.4006 440.801 -43.5133 429.417 -27.8991C419.568 -14.0652 399.294 3.08038 370.785 21.683C343.511 39.4786 309.901 57.6798 276.143 72.9339C243.953 87.4769 212.767 98.9112 185.255 106.283L185.258 106.272ZM353.531 -288.796C348.074 -287.334 342.882 -284.594 338.071 -280.602C320.656 -266.127 297.105 -249.634 273.458 -235.356C243.984 -217.559 215.833 -204.07 192.044 -196.355C168.437 -188.205 142.955 -171.411 122.144 -150.281C102.238 -130.072 89.7397 -108.98 88.7175 -93.8693C88.0932 -84.454 86.3588 -72.3672 84.3508 -58.3722C79.7013 -25.9579 73.3345 18.437 73.5204 75.4891C73.0383 93.7534 81.2894 105.843 98.0488 111.431C115.428 117.226 141.337 116.072 175.059 108.007C204.854 100.874 239.692 88.4856 275.807 72.1658C309.528 56.9288 343.1 38.7521 370.337 20.9768C398.759 2.43226 418.955 -14.6398 428.748 -28.3956C440.073 -43.9276 447.739 -59.7222 452.194 -76.6839C456.194 -91.9272 457.493 -107.784 456.161 -125.156C453.732 -156.794 442.898 -188.688 430.046 -224.109C417.991 -257.692 396.433 -282.391 373.783 -288.567C366.814 -290.468 359.992 -290.53 353.537 -288.801L353.531 -288.796Z" fill="#84B5FF"/>
<path d="M186.552 88.3922C184.861 88.8452 183.19 89.279 181.532 89.6953C151.476 97.2515 128.361 98.5778 112.829 93.6352C97.9909 88.913 90.5519 78.5067 90.7251 62.6993C88.8879 12.8514 93.7966 -30.0008 97.381 -61.2893C98.8021 -73.6948 100.031 -84.4101 100.559 -93.0992C101.515 -108.367 112.417 -128.026 130.467 -147.038C148.898 -166.448 172.147 -182.182 194.26 -190.201C238.4 -204.931 293.16 -238.552 325.365 -263.555C335.067 -271.071 346.405 -273.24 358.151 -269.829C378.684 -263.866 398.134 -241.583 408.907 -211.669C419.967 -181.444 430.072 -151.908 432.236 -122.863C433.404 -107.205 432.223 -92.8821 428.63 -79.0858C424.639 -63.7573 417.793 -49.4781 407.708 -35.4269C398.895 -22.7249 380.802 -7.02523 355.391 9.96655C331.201 26.1408 301.295 42.7471 271.183 56.7264C241.108 70.6854 211.978 81.5793 186.553 88.3955L186.552 88.3922ZM338.77 -269.493C334.231 -268.277 329.89 -266.091 325.838 -262.953C293.584 -237.912 238.73 -204.235 194.516 -189.482C172.521 -181.505 149.379 -165.842 131.029 -146.512C113.099 -127.628 102.276 -108.144 101.332 -93.0541C100.802 -84.347 99.5719 -73.6209 98.1501 -61.2047C94.5661 -29.9408 89.6627 12.8784 91.4968 62.6886C91.3291 78.1374 98.5857 88.2948 113.068 92.9025C128.462 97.8015 151.435 96.4711 181.35 88.9493C207.877 82.2719 238.834 70.8956 270.862 56.0246C300.937 42.0624 330.807 25.4797 354.966 9.32394C380.3 -7.61567 398.321 -23.2435 407.084 -35.8725C417.12 -49.8474 423.924 -64.0454 427.892 -79.2799C431.464 -92.9939 432.636 -107.234 431.477 -122.807C429.32 -151.755 419.231 -181.236 408.192 -211.407C397.5 -241.094 378.25 -263.197 357.946 -269.091C351.348 -271.007 344.883 -271.124 338.775 -269.487L338.77 -269.493Z" fill="#84B5FF"/>
<path d="M187.994 70.5601L187.808 70.6101C161.573 77.6222 141.405 79.1288 127.868 75.0909C115.333 71.3551 108.907 62.8837 108.768 49.9155C105.05 6.46513 108.664 -35.9876 111.303 -66.9843C112.129 -76.6918 112.845 -85.0739 113.244 -92.2823C114.103 -107.296 123.636 -125.864 139.393 -143.221C155.376 -160.828 176.283 -175.429 196.751 -183.273C215.77 -189.84 237.549 -199.983 261.499 -213.418C279.513 -223.525 298.355 -235.357 313.198 -245.882C321.89 -252.024 331.967 -253.551 342.347 -250.296C360.497 -244.605 377.607 -224.933 386.999 -198.957C396.336 -173.711 405.606 -146.858 407.496 -120.514C408.488 -106.661 407.435 -93.9686 404.273 -81.7024C400.769 -68.1119 394.791 -55.4343 386 -42.9518C370.58 -20.0091 322.437 13.5507 266.211 40.5502C238.303 53.9529 211.262 64.3255 187.994 70.5601ZM323.94 -250.22C320.334 -249.254 316.866 -247.611 313.601 -245.304C298.741 -234.767 279.872 -222.917 261.839 -212.801C237.856 -199.347 216.035 -189.19 196.988 -182.612C176.632 -174.808 155.825 -160.279 139.912 -142.747C124.261 -125.506 114.797 -107.097 113.945 -92.2425C113.544 -85.0268 112.831 -76.6381 112.002 -66.9265C109.363 -35.9544 105.753 6.46217 109.47 49.8782C109.607 62.528 115.864 70.7717 128.068 74.4106C141.478 78.4088 161.517 76.9019 187.624 69.924L187.81 69.874C211.036 63.6508 238.032 53.2937 265.902 39.908C322.026 12.957 370.051 -20.5047 385.414 -43.3586C394.16 -55.7764 400.102 -68.3779 403.586 -81.886C406.727 -94.073 407.775 -106.694 406.79 -120.468C404.907 -146.72 395.652 -173.518 386.334 -198.719C377.013 -224.494 360.077 -244.002 342.134 -249.626C335.878 -251.588 329.73 -251.775 323.946 -250.225L323.94 -250.22Z" fill="#84B5FF"/>
<path d="M189.541 52.8438C169.321 58.2619 153.639 59.533 142.884 56.6195C132.658 53.8479 127.249 47.3029 126.805 37.1584C120.649 -0.712197 123.236 -44.9731 125.124 -77.2953C125.419 -82.3677 125.699 -87.156 125.916 -91.4583C126.695 -106.458 134.648 -123.482 148.309 -139.398C162.086 -155.444 180.17 -168.563 199.229 -176.339C212.559 -181.143 249.138 -195.801 301.022 -228.2C308.717 -232.979 317.554 -233.862 326.579 -230.744C342.321 -225.308 357.074 -208.254 365.082 -186.242C372.786 -165.692 381.139 -141.79 382.746 -118.161C384.447 -93.1876 378.408 -71.0495 364.285 -50.4746C357.533 -40.0165 343.799 -27.1971 324.579 -13.4048C306.272 -0.270442 284.365 12.8094 261.226 24.4194C237.331 36.4074 214.107 45.8027 194.065 51.5861C192.533 52.0282 191.023 52.4469 189.538 52.8447L189.541 52.8438ZM309.02 -230.997C306.372 -230.288 303.808 -229.17 301.365 -227.654C293.064 -222.471 276.135 -212.182 256.029 -201.524C234.92 -190.332 215.891 -181.658 199.463 -175.74C180.508 -168.006 162.512 -154.952 148.803 -138.981C135.235 -123.173 127.336 -106.287 126.565 -91.4291C126.348 -87.1268 126.069 -82.3353 125.775 -77.2596C123.887 -44.962 121.303 -0.733164 127.452 37.0727L127.455 37.1104C127.877 46.9525 133.126 53.3058 143.057 55.9954C154.325 59.0479 171.905 57.3104 193.891 50.9639C213.897 45.1901 237.08 35.8127 260.942 23.8409C284.049 12.2462 305.929 -0.816001 324.21 -13.9294C343.367 -27.673 357.04 -40.4339 363.755 -50.8299C377.798 -71.2852 383.799 -93.2939 382.111 -118.113C380.509 -141.657 372.173 -165.507 364.485 -186.012C356.541 -207.852 341.94 -224.754 326.376 -230.129C320.413 -232.191 314.532 -232.467 309.029 -230.993L309.02 -230.997Z" fill="#84B5FF"/>
<path d="M191.754 35.1662C177.396 39.0133 165.797 40.087 157.889 38.263C149.947 36.4306 145.56 31.7652 144.847 24.3928C134.919 -8.43308 137.494 -66.0359 138.591 -90.6385C140.017 -121.377 165.973 -153.768 201.711 -169.405C230.517 -180.359 263.375 -197.35 283.008 -207.499C285.092 -208.576 287.05 -209.587 288.857 -210.52C295.573 -213.955 303.2 -214.174 310.901 -211.16C324.201 -205.955 336.563 -191.535 343.169 -173.525C350.132 -155.294 356.746 -135.685 358.001 -115.806C359.339 -94.5942 354.295 -75.6852 342.574 -57.9951C331.319 -39.6246 297.434 -13.5829 256.246 8.34358C236.442 18.8852 217.105 27.2879 200.327 32.645C197.373 33.5871 194.512 34.4308 191.752 35.1703L191.754 35.1662ZM293.941 -211.858C292.29 -211.415 290.683 -210.795 289.123 -209.999C287.315 -209.07 285.36 -208.06 283.277 -206.98C263.635 -196.825 230.759 -179.822 201.933 -168.862C166.403 -153.316 140.593 -121.135 139.177 -90.6099C138.077 -66.0311 135.505 -8.47095 145.416 24.2543L145.431 24.3099C146.106 31.4228 150.341 35.9259 158.021 37.6955C167.348 39.8465 181.919 37.9066 200.154 32.0891C216.9 26.7441 236.205 18.3567 255.976 7.83124C297.074 -14.0502 330.873 -40.0092 342.084 -58.3052C368.112 -97.5857 356.623 -136.657 342.627 -173.313C336.074 -191.177 323.838 -205.466 310.691 -210.61C304.94 -212.861 299.24 -213.27 293.946 -211.852L293.941 -211.858Z" fill="#84B5FF"/>
<path d="M194.326 17.7951C185.55 20.1467 178.233 20.9866 172.928 20.1251C167.215 19.1943 163.839 16.3414 162.897 11.6461C157.657 3.39241 154.067 -12.1139 152.219 -34.4428C150.874 -50.7118 150.526 -70.8935 151.27 -89.8163C152.508 -120.182 172.294 -147.341 204.197 -162.469C215.557 -167.106 227.317 -172.173 238.69 -177.073C253.401 -183.409 267.295 -189.391 276.695 -192.841C284.617 -195.713 293.678 -193.771 302.208 -187.376C310.295 -181.314 317.235 -171.632 321.259 -160.811C330.922 -136.168 332.746 -122.559 333.258 -113.455C334.237 -96.0131 330.183 -80.3316 320.866 -65.5198C311.64 -49.3457 284.997 -27.1704 251.331 -7.6587C229.827 4.80553 209.806 13.6507 194.327 17.7984L194.326 17.7951ZM278.595 -192.891C278.017 -192.736 277.445 -192.555 276.876 -192.35C267.488 -188.907 253.603 -182.928 238.9 -176.593C227.523 -171.692 215.759 -166.628 204.408 -161.993C172.698 -146.956 153.022 -119.966 151.794 -89.7989C151.052 -70.8942 151.396 -50.7362 152.74 -34.4877C154.581 -12.2063 158.159 3.23699 163.365 11.4051L163.39 11.4474L163.402 11.4931C164.283 15.981 167.513 18.7117 173.01 19.6093C187.559 21.9824 217.47 11.3591 251.066 -8.11285C284.656 -27.5798 311.228 -49.6801 320.415 -65.7878C329.679 -80.5118 333.705 -96.0911 332.734 -113.423C331.765 -130.679 325.831 -147.711 320.767 -160.62C316.78 -171.356 309.901 -180.953 301.893 -186.955C294.122 -192.78 285.921 -194.851 278.596 -192.888L278.595 -192.891Z" fill="#84B5FF"/>
<path d="M197.64 1.00944C194.011 1.98195 190.859 2.47291 188.3 2.43358C184.558 2.37171 182.095 1.19683 180.981 -1.06438C173.053 -4.3641 168.881 -21.6582 166.777 -35.6087C164.404 -51.3433 163.346 -71.2996 163.944 -88.9998C164.479 -104.232 168.114 -116.965 175.062 -127.931C182.159 -139.129 192.5 -148.157 206.678 -155.539C228.508 -165.373 251.219 -173.073 264.545 -175.159C271.041 -176.146 278.276 -173.708 284.915 -168.298C291.126 -163.235 296.386 -155.873 299.342 -148.096C307.671 -127.7 315.174 -100.741 299.153 -73.0468C292.02 -59.1739 272.446 -40.7241 246.799 -23.7111C228.055 -11.2758 210.062 -2.31903 197.637 1.01031L197.64 1.00944ZM253.251 -172.199C240.224 -168.708 223.304 -162.522 206.883 -155.124C192.791 -147.791 182.509 -138.813 175.457 -127.686C168.553 -116.791 164.939 -104.134 164.41 -88.988C163.286 -55.9076 167.766 -6.88332 181.239 -1.46261L181.322 -1.42875L181.361 -1.34817C182.373 0.793345 184.711 1.9072 188.308 1.96577C199.544 2.14873 222.403 -8.08382 246.547 -24.1022C272.131 -41.074 291.65 -59.4564 298.752 -73.2755C314.677 -100.804 307.204 -127.635 298.916 -147.933L298.914 -147.94C295.985 -155.643 290.774 -162.938 284.623 -167.95C278.086 -173.279 270.98 -175.678 264.616 -174.712C261.343 -174.199 257.503 -173.345 253.249 -172.205L253.251 -172.199Z" fill="#84B5FF"/>
</g>
</svg>
