<svg width="390" height="227" viewBox="0 0 390 227" fill="none" xmlns="http://www.w3.org/2000/svg">
<g opacity="0.3">
<path d="M27.6163 658.97C16.6244 661.916 5.94832 664.505 -4.35595 666.72C-60.9276 678.89 -104.486 679.646 -133.822 668.967C-163.836 658.046 -178.106 635.259 -176.241 601.237C-170.575 497.954 -155.82 430.927 -146.057 386.578C-141.662 366.616 -138.191 350.847 -137.202 338.92C-135.559 319.07 -114.072 287.546 -81.131 256.645C-45.6802 223.394 -4.95776 198.098 30.6002 187.246C79.6397 172.28 129.6 143.63 162.874 122.231C201.636 97.3031 240.695 67.3361 267.357 42.0676C284.567 25.7546 305.089 19.8583 326.696 25.0142C364.108 33.9444 399.938 74.7849 420.203 131.594C429.805 158.519 439.737 186.366 447.615 213.692C456.327 243.906 461.506 270.221 463.454 294.137C465.775 322.694 463.677 348.678 457.038 373.567C449.624 401.356 436.757 427.184 417.699 452.53C385.152 495.818 280.696 560.969 163.688 610.966C115.82 631.417 69.4244 647.763 27.6152 658.966L27.6163 658.97ZM296.737 26.4393C286.573 29.1627 276.969 34.7074 268.23 42.9916C241.513 68.3143 202.384 98.3346 163.563 123.3C130.221 144.74 80.151 173.453 30.9698 188.462C-4.40563 199.261 -44.9516 224.448 -80.2651 257.575C-112.986 288.269 -134.32 319.481 -135.939 339.031C-136.935 351.048 -140.415 366.85 -144.819 386.858C-154.574 431.17 -169.312 498.131 -174.975 601.313C-176.806 634.71 -162.815 657.073 -133.387 667.784C-104.28 678.376 -60.9572 677.604 -4.62027 665.489C44.7866 654.863 102.814 635.61 163.19 609.81C280.018 559.892 384.261 494.907 416.689 451.778C435.646 426.564 448.443 400.881 455.816 373.248C462.417 348.5 464.506 322.659 462.194 294.248C457.86 240.943 438.108 185.574 419.011 132.027C398.893 75.6156 363.408 35.0846 326.403 26.255C316.185 23.815 306.216 23.9038 296.738 26.4434L296.737 26.4393Z" fill="#84B5FF"/>
<path d="M28.9053 636.558C20.2105 638.888 11.7422 640.969 3.52763 642.79C-48.2778 654.272 -88.1556 655.253 -115.007 645.704C-142.149 636.049 -155.178 615.722 -153.734 585.287C-150.05 493.327 -137.546 429.603 -129.273 387.441C-125.389 367.647 -122.324 352.013 -121.388 339.951C-119.869 320.454 -100.18 290.364 -70.0038 261.419C-37.6916 230.424 0.104607 206.546 33.6937 195.902C78.8698 181.875 124.963 155.782 155.673 136.368C191.752 113.557 226.921 87.2325 252.161 64.1362C268.093 49.5641 287.009 44.465 306.87 49.3895C341.346 57.9356 374.296 95.515 392.857 147.471C410.417 196.472 428.577 247.142 432.573 297.08C434.679 323.384 432.736 347.338 426.634 370.309C419.829 395.933 408.039 419.76 390.605 443.15C360.8 483.405 264.949 544.079 157.519 590.701C112.188 610.371 68.2634 626.017 28.9023 636.563L28.9053 636.558ZM278.434 50.586C269.38 53.012 260.809 57.843 252.969 65.0122C227.679 88.1524 192.45 114.528 156.313 137.372C125.54 156.825 79.3511 182.97 34.0548 197.038C0.634884 207.627 -36.9919 231.403 -69.1749 262.276C-99.1494 291.027 -118.698 320.826 -120.196 340.043C-121.134 352.175 -124.21 367.838 -128.097 387.668C-136.365 429.798 -148.856 493.461 -152.536 585.337C-153.951 615.193 -141.19 635.124 -114.599 644.581C-87.9655 654.053 -48.3062 653.057 3.2767 641.625C48.6062 631.581 101.781 613.588 157.054 589.602C264.312 543.056 359.961 482.542 389.656 442.434C407.006 419.167 418.727 395.472 425.492 369.999C431.56 347.159 433.491 323.339 431.394 297.169C427.408 247.385 409.277 196.79 391.742 147.862C373.31 96.2771 340.683 58.9871 306.587 50.536C296.896 48.1341 287.425 48.1724 278.433 50.582L278.434 50.586Z" fill="#84B5FF"/>
<path d="M30.2794 614.168C23.841 615.893 17.5484 617.461 11.406 618.871C-35.6322 629.671 -71.8342 630.872 -96.1922 622.451C-120.463 614.063 -132.248 596.191 -131.22 569.331C-129.488 488.102 -119.562 429.95 -112.313 387.494C-109.023 368.225 -106.428 353.006 -105.563 340.972C-104.147 321.533 -86.6897 293.575 -58.8657 266.182C-29.6789 237.444 5.19111 214.984 36.7991 204.552C111.676 180.828 197.53 120.774 236.974 86.1995C251.627 73.3682 268.945 69.0642 287.065 73.7563C318.6 81.9192 348.661 116.244 365.521 163.334C380.774 205.651 398.056 253.616 401.702 300.013C403.59 324.063 401.807 345.986 396.244 367.039C390.045 390.499 379.341 412.323 363.521 433.76C349.939 452.434 321.913 475.644 282.475 500.87C244.594 525.103 198.024 549.808 151.354 570.436C108.59 589.335 67.1516 604.288 30.2835 614.167L30.2794 614.168ZM260.101 74.7199C252.165 76.8463 244.632 80.9664 237.705 87.0349C198.195 121.671 112.174 181.835 37.1394 205.61C5.69244 215.99 -29.0193 238.356 -58.0893 266.974C-85.7226 294.181 -103.058 321.875 -104.457 341.052C-105.325 353.139 -107.927 368.382 -111.222 387.682C-118.462 430.105 -128.379 488.211 -130.112 569.367C-131.119 595.687 -119.586 613.19 -95.8306 621.402C-71.6704 629.754 -35.6777 628.538 11.1543 617.785C52.4042 608.314 100.732 591.589 150.898 569.417C197.521 548.811 244.033 524.135 281.869 499.932C321.187 474.78 349.11 451.673 362.615 433.102C378.355 411.778 389 390.076 395.159 366.758C400.689 345.827 402.464 324.024 400.585 300.102C396.952 253.855 379.694 205.962 364.464 163.714C347.727 116.966 317.96 82.9079 286.777 74.8342C277.59 72.4544 268.612 72.4393 260.097 74.721L260.101 74.7199Z" fill="#84B5FF"/>
<path d="M31.7568 591.807C27.5175 592.943 23.3579 594.001 19.2645 594.979C-23.0075 605.092 -55.5274 606.521 -77.3964 599.229C-98.7905 592.093 -109.326 576.669 -108.712 553.386C-108.941 482.138 -100.992 426.695 -95.1852 386.216C-92.6833 368.772 -90.5229 353.708 -89.7463 341.999C-88.4522 322.903 -72.7465 296.341 -47.7396 270.952C-21.6596 244.476 10.282 223.425 39.8956 213.205C69.5152 203.594 104.57 186.8 141.281 164.632C170.746 146.84 200.085 126.294 221.781 108.264C235.154 97.1652 250.884 93.6581 267.27 98.1289C295.855 105.924 323.023 136.991 338.175 179.208C354.238 223.475 367.781 263.345 370.821 302.956C372.494 324.753 370.864 344.652 365.841 363.786C360.25 385.077 350.628 404.902 336.424 424.386C324.134 441.648 298.835 463.043 263.262 486.255C229.228 508.461 187.289 531.173 145.164 550.207C104.997 568.355 66.0822 582.623 31.7519 591.821L31.7568 591.807ZM241.732 98.8327C234.922 100.657 228.443 104.076 222.44 109.057C200.708 127.119 171.321 147.7 141.815 165.516C105.036 187.724 69.9082 204.555 40.2233 214.183C10.7667 224.352 -21.03 245.308 -46.9991 271.675C-71.8377 296.892 -87.4337 323.211 -88.7093 342.067C-89.4884 353.815 -91.6525 368.897 -94.1582 386.361C-99.9599 426.808 -107.905 482.205 -107.673 553.396C-108.274 576.187 -97.9783 591.273 -77.0654 598.245C-55.3788 605.476 -23.0496 604.037 19.0296 593.972C56.208 585.072 99.68 569.613 144.746 549.249C186.824 530.236 228.714 507.555 262.702 485.374C298.168 462.234 323.369 440.931 335.589 423.766C349.72 404.385 359.286 384.676 364.845 363.511C369.837 344.49 371.457 324.703 369.795 303.026C366.764 263.547 353.245 223.75 337.208 179.55C322.166 137.645 295.265 106.825 267.001 99.1184C258.306 96.7466 249.793 96.6683 241.739 98.8265L241.732 98.8327Z" fill="#84B5FF"/>
<path d="M33.3703 569.497C31.2608 570.062 29.1756 570.603 27.1064 571.123C-10.3983 580.552 -39.2414 582.207 -58.6225 576.039C-77.1383 570.147 -86.4207 557.161 -86.2047 537.436C-88.4971 475.235 -82.372 421.763 -77.8993 382.721C-76.126 367.241 -74.5922 353.87 -73.9334 343.028C-72.741 323.976 -59.1367 299.445 -36.6134 275.722C-13.6158 251.501 15.3956 231.868 42.9892 221.862C98.0672 203.481 166.399 161.529 206.584 130.329C218.691 120.951 232.838 118.244 247.496 122.5C273.117 129.941 297.387 157.747 310.83 195.073C324.631 232.789 337.24 269.645 339.941 305.887C341.398 325.426 339.925 343.298 335.441 360.514C330.46 379.641 321.919 397.459 309.334 414.992C298.337 430.842 275.76 450.433 244.051 471.635C213.867 491.818 176.55 512.54 138.975 529.983C101.447 547.402 65.0974 560.995 33.3714 569.501L33.3703 569.497ZM223.311 122.92C217.648 124.437 212.23 127.165 207.175 131.08C166.927 162.327 98.4792 204.35 43.3084 222.759C15.8625 232.713 -13.0151 252.257 -35.9129 276.378C-58.2862 299.942 -71.7917 324.255 -72.9693 343.084C-73.6309 353.949 -75.1655 367.333 -76.9396 382.826C-81.4117 421.838 -87.5304 475.269 -85.2418 537.423C-85.4509 556.701 -76.396 569.375 -58.3252 575.125C-39.1161 581.238 -10.4494 579.578 26.8788 570.192C59.9807 561.86 98.609 547.664 138.575 529.108C176.102 511.685 213.375 490.993 243.522 470.833C275.134 449.696 297.621 430.195 308.555 414.436C321.078 396.998 329.568 379.281 334.519 360.272C338.978 343.159 340.439 325.39 338.993 305.957C336.302 269.835 323.712 233.049 309.938 195.4C296.597 158.356 272.576 130.776 247.24 123.421C239.007 121.03 230.939 120.885 223.318 122.927L223.311 122.92Z" fill="#84B5FF"/>
<path d="M35.1701 547.246L34.9375 547.308C2.20114 556.058 -22.9651 557.938 -39.8571 552.899C-55.498 548.238 -63.5169 537.667 -63.6897 521.485C-68.3299 467.266 -63.8205 414.293 -60.5272 375.614C-59.496 363.501 -58.6034 353.042 -58.1054 344.047C-57.0338 325.312 -45.1374 302.143 -25.4762 280.485C-5.53128 258.515 20.5569 240.295 46.0967 230.506C69.8291 222.312 97.0057 209.656 126.891 192.892C149.369 180.279 172.881 165.516 191.402 152.382C202.249 144.717 214.822 142.812 227.775 146.874C250.424 153.975 271.773 178.522 283.493 210.936C295.144 242.438 306.711 275.946 309.069 308.819C310.308 326.105 308.993 341.943 305.048 357.249C300.675 374.207 293.216 390.027 282.246 405.603C263.005 434.231 202.931 476.108 132.771 509.798C97.9468 526.523 64.2043 539.466 35.1701 547.246ZM204.806 146.968C200.306 148.174 195.98 150.225 191.906 153.104C173.362 166.252 149.817 181.037 127.315 193.66C97.3887 210.449 70.1602 223.123 46.3922 231.332C20.9919 241.07 -4.97175 259.199 -24.8281 281.076C-44.3574 302.589 -56.1669 325.56 -57.2306 344.097C-57.7305 353.101 -58.621 363.568 -59.6551 375.687C-62.9479 414.334 -67.4519 467.263 -62.8145 521.438C-62.6432 537.223 -54.8359 547.51 -39.6079 552.05C-22.8735 557.039 2.13085 555.159 34.7081 546.452L34.9406 546.389C63.9219 538.624 97.6083 525.7 132.386 508.997C202.418 475.367 262.345 433.613 281.515 405.095C292.428 389.6 299.843 373.875 304.191 357.02C308.11 341.812 309.418 326.064 308.188 308.876C305.839 276.118 294.291 242.68 282.663 211.233C271.032 179.07 249.899 154.727 227.509 147.71C219.703 145.262 212.031 145.028 204.814 146.962L204.806 146.968Z" fill="#84B5FF"/>
<path d="M37.1005 525.139C11.8689 531.899 -7.69984 533.486 -21.1198 529.85C-33.88 526.392 -40.6295 518.225 -41.1832 505.566C-48.8644 458.31 -45.6373 403.08 -43.2814 362.748C-42.9133 356.419 -42.5639 350.444 -42.2925 345.075C-41.3209 326.358 -31.3966 305.116 -14.35 285.255C2.84151 265.233 25.4061 248.862 49.1892 239.159C65.823 233.164 111.466 214.874 176.209 174.446C185.811 168.483 196.837 167.381 208.1 171.271C227.742 178.055 246.152 199.334 256.145 226.802C265.757 252.444 276.18 282.27 278.186 311.755C280.309 342.917 272.772 370.542 255.149 396.216C246.725 409.265 229.587 425.262 205.603 442.472C182.759 458.861 155.423 475.183 126.551 489.67C96.7332 504.629 67.7542 516.353 42.7454 523.569C40.8335 524.121 38.9488 524.643 37.0964 525.14L37.1005 525.139ZM186.189 170.955C182.884 171.841 179.685 173.235 176.637 175.127C166.278 181.595 145.155 194.434 120.066 207.733C93.7253 221.699 69.9803 232.522 49.4814 239.907C25.8286 249.557 3.37323 265.846 -13.7337 285.776C-30.6638 305.5 -40.5203 326.572 -41.4825 345.112C-41.7538 350.48 -42.1022 356.459 -42.4692 362.793C-44.8246 403.094 -48.0493 458.284 -40.3766 505.459L-40.3728 505.506C-39.8458 517.787 -33.296 525.715 -20.9043 529.071C-6.84312 532.88 15.093 530.712 42.5286 522.793C67.4926 515.588 96.4207 503.887 126.196 488.948C155.029 474.48 182.332 458.181 205.144 441.818C229.048 424.668 246.109 408.745 254.488 395.772C272.011 370.248 279.499 342.785 277.393 311.814C275.394 282.437 264.993 252.675 255.399 227.089C245.486 199.836 227.267 178.746 207.846 172.038C200.405 169.466 193.066 169.121 186.199 170.961L186.189 170.955Z" fill="#84B5FF"/>
<path d="M39.862 503.08C21.9462 507.881 7.47165 509.221 -2.39601 506.945C-12.3059 504.658 -17.7797 498.836 -18.6703 489.637C-31.0583 448.676 -27.8447 376.798 -26.4761 346.098C-24.6969 307.743 7.69213 267.324 52.2863 247.811C88.2308 234.143 129.232 212.941 153.73 200.277C156.331 198.933 158.774 197.671 161.029 196.507C169.41 192.221 178.927 191.948 188.536 195.709C205.132 202.203 220.558 220.197 228.801 242.671C237.49 265.419 245.743 289.888 247.308 314.694C248.978 341.162 242.684 364.757 228.058 386.831C214.014 409.755 171.731 442.25 120.336 469.61C95.6241 482.764 71.4954 493.25 50.5596 499.934C46.8733 501.11 43.3027 502.163 39.859 503.085L39.862 503.08ZM167.373 194.838C165.313 195.39 163.307 196.164 161.361 197.157C159.105 198.317 156.666 199.577 154.066 200.925C129.557 213.596 88.5329 234.813 52.5639 248.489C8.22814 267.888 -23.9778 308.044 -25.745 346.134C-27.1172 376.804 -30.3275 448.629 -17.9601 489.464L-17.9415 489.533C-17.0982 498.409 -11.8143 504.028 -2.23156 506.236C9.40721 508.92 27.5891 506.5 50.3432 499.241C71.2392 492.571 95.3293 482.105 119.999 468.971C171.282 441.667 213.457 409.275 227.447 386.444C259.925 337.429 245.589 288.675 228.125 242.935C219.948 220.644 204.679 202.814 188.274 196.395C181.097 193.586 173.985 193.075 167.38 194.845L167.373 194.838Z" fill="#84B5FF"/>
<path d="M43.0712 481.404C32.1201 484.338 22.9901 485.387 16.3698 484.312C9.24095 483.15 5.02914 479.59 3.85283 473.731C-2.68516 463.432 -7.16568 444.083 -9.47117 416.22C-11.1499 395.92 -11.583 370.736 -10.655 347.124C-9.10984 309.233 15.5784 275.344 55.3881 256.466C69.5633 250.68 84.2377 244.358 98.43 238.244C116.786 230.337 134.124 222.873 145.853 218.567C155.738 214.984 167.045 217.407 177.689 225.387C187.78 232.952 196.439 245.033 201.461 258.535C213.518 289.286 215.795 306.267 216.433 317.627C217.656 339.392 212.596 358.959 200.97 377.442C189.458 397.624 156.212 425.295 114.203 449.642C87.3699 465.195 62.3877 476.233 43.0723 481.408L43.0712 481.404ZM148.224 218.505C147.502 218.698 146.789 218.924 146.079 219.18C134.364 223.477 117.039 230.937 98.6909 238.842C84.4946 244.958 69.815 251.277 55.6521 257.06C16.0834 275.824 -8.46907 309.503 -10.0019 347.146C-10.9273 370.735 -10.4978 395.889 -8.8215 416.164C-6.52314 443.968 -2.0593 463.238 4.43696 473.43L4.46858 473.483L4.48387 473.54C5.5821 479.14 9.61312 482.548 16.4729 483.668C34.6274 486.629 71.9507 473.373 113.872 449.076C155.786 424.784 188.944 397.207 200.408 377.107C211.967 358.734 216.991 339.294 215.779 317.667C214.571 296.135 207.166 274.882 200.847 258.774C195.871 245.377 187.288 233.402 177.296 225.912C167.599 218.644 157.365 216.06 148.225 218.509L148.224 218.505Z" fill="#84B5FF"/>
</g>
</svg>
