<svg width="390" height="228" viewBox="0 0 390 228" fill="none" xmlns="http://www.w3.org/2000/svg">
<g opacity="0.3">
<path d="M31.693 178.554C20.5042 181.552 9.63765 184.191 -0.849587 186.451C-58.4259 198.872 -102.733 199.763 -132.539 189.098C-163.034 178.191 -177.481 155.291 -175.483 121.031C-169.414 17.0243 -154.207 -50.5048 -144.145 -95.1861C-139.616 -115.297 -136.038 -131.185 -134.997 -143.196C-133.267 -163.186 -111.318 -194.99 -77.7218 -226.2C-41.5654 -259.784 -0.0706729 -285.374 36.1282 -296.405C86.0518 -311.62 136.953 -340.613 170.86 -362.258C210.359 -387.471 250.176 -417.759 277.369 -443.279C294.922 -459.755 315.813 -465.752 337.775 -460.625C375.801 -451.745 412.124 -410.732 432.566 -353.594C442.253 -326.513 452.272 -298.506 460.204 -271.016C468.976 -240.622 474.165 -214.142 476.076 -190.068C478.352 -161.322 476.14 -135.154 469.314 -110.076C461.691 -82.0753 448.526 -56.0323 429.067 -30.4564C395.834 13.2241 289.397 79.1309 170.236 129.817C121.489 150.55 74.2502 167.146 31.6919 178.549L31.693 178.554ZM307.299 -459.102C296.953 -456.329 287.168 -450.718 278.254 -442.352C251.005 -416.776 211.117 -386.435 171.557 -361.183C137.581 -339.498 86.5684 -310.439 36.5005 -295.182C0.487442 -284.205 -40.8274 -258.725 -76.8439 -225.266C-110.216 -194.265 -132.008 -162.776 -133.712 -143.088C-134.761 -130.986 -138.348 -115.066 -142.886 -94.9079C-152.941 -50.2639 -168.13 17.1989 -174.195 121.103C-176.157 154.734 -161.993 177.209 -132.093 187.906C-102.519 198.484 -58.4522 197.578 -1.11477 185.212C49.1695 174.367 108.248 154.81 169.734 128.655C288.711 78.0487 394.93 12.3102 428.042 -31.2103C447.399 -56.6532 460.491 -82.5495 468.072 -110.393C474.86 -135.33 477.061 -161.355 474.793 -189.953C470.543 -243.609 450.618 -299.298 431.353 -353.155C411.058 -409.892 375.085 -450.595 337.473 -459.375C327.088 -461.802 316.948 -461.683 307.3 -459.097L307.299 -459.102Z" fill="#84B5FF"/>
<path d="M33.0706 155.984C24.22 158.356 15.6005 160.476 7.23991 162.334C-45.4866 174.049 -86.05 175.155 -113.332 165.62C-140.91 155.98 -154.103 135.553 -152.544 104.904C-148.524 12.3051 -135.616 -51.8915 -127.077 -94.3667C-123.068 -114.308 -119.903 -130.058 -118.915 -142.205C-117.312 -161.84 -97.1971 -192.194 -66.4183 -221.427C-33.461 -252.73 5.0532 -276.883 39.249 -287.699C85.2402 -301.956 132.2 -328.364 163.493 -348.003C200.258 -371.077 236.107 -397.685 261.848 -421.015C278.096 -435.734 297.351 -440.924 317.538 -436.025C352.578 -427.522 385.98 -389.784 404.705 -337.527C422.42 -288.244 440.74 -237.281 444.657 -187.013C446.721 -160.536 444.674 -136.413 438.399 -113.266C431.402 -87.447 419.339 -63.4222 401.537 -39.8201C371.102 0.798357 273.43 62.1717 164.022 109.432C117.857 129.371 73.1338 145.254 33.0675 155.989L33.0706 155.984ZM288.61 -434.735C279.394 -432.266 270.662 -427.377 262.667 -420.135C236.875 -396.762 200.964 -370.101 164.142 -346.994C132.784 -327.316 85.7265 -300.856 39.6128 -286.557C5.58935 -275.796 -32.7522 -251.746 -65.5779 -220.566C-96.1509 -191.529 -116.122 -161.469 -117.703 -142.116C-118.694 -129.898 -121.869 -114.119 -125.881 -94.1418C-134.416 -51.6988 -147.309 12.4367 -151.325 104.951C-152.853 135.016 -139.932 155.045 -112.915 164.488C-85.8531 173.946 -45.5119 172.825 6.98814 161.162C53.1235 150.914 107.262 132.641 163.552 108.327C272.785 61.1444 370.251 -0.0682133 400.574 -40.5381C418.29 -64.0159 430.281 -87.9072 437.239 -113.575C443.478 -136.589 445.513 -160.577 443.458 -186.921C439.552 -237.033 421.26 -287.92 403.57 -337.131C384.976 -389.014 351.901 -426.462 317.246 -434.869C307.396 -437.259 297.763 -437.192 288.609 -434.74L288.61 -434.735Z" fill="#84B5FF"/>
<path d="M34.5347 133.437C27.9809 135.193 21.576 136.791 15.3242 138.228C-32.5514 149.241 -69.3768 150.558 -94.1268 142.152C-118.788 133.779 -130.722 115.819 -129.596 88.7729C-127.594 6.983 -117.325 -51.5962 -109.826 -94.3642C-106.423 -113.774 -103.738 -129.105 -102.823 -141.224C-101.324 -160.8 -83.4853 -189.001 -55.1037 -216.665C-25.3319 -245.685 10.2018 -268.403 42.3819 -278.999C118.612 -303.108 206.114 -363.827 246.335 -398.755C261.277 -411.718 278.905 -416.103 297.321 -411.432C329.372 -403.307 359.846 -368.837 376.854 -321.475C392.243 -278.914 409.678 -230.672 413.249 -183.969C415.098 -159.76 413.219 -137.681 407.499 -116.468C401.124 -92.8291 390.171 -70.825 374.017 -49.1943C360.147 -30.3517 331.572 -6.90053 291.384 18.616C252.783 43.127 205.342 68.1384 157.812 89.0459C114.26 108.202 72.0675 123.38 34.5388 133.436L34.5347 133.437ZM269.892 -410.382C261.814 -408.218 254.14 -404.047 247.076 -397.917C206.787 -362.926 119.114 -302.096 42.7249 -277.935C10.7087 -267.391 -24.6637 -244.769 -54.3163 -215.869C-82.5036 -188.394 -100.218 -160.459 -101.698 -141.147C-102.617 -128.975 -105.308 -113.62 -108.717 -94.1779C-116.207 -51.4431 -126.466 7.08957 -128.47 88.8053C-129.573 115.309 -117.893 132.897 -93.7559 141.094C-69.2069 149.432 -32.5943 148.101 15.0714 137.136C57.0556 127.477 106.261 110.495 157.351 88.0222C204.833 67.1362 252.215 42.1538 290.771 17.6725C330.837 -7.76731 359.306 -31.1154 373.097 -49.8533C389.171 -71.3701 400.062 -93.2523 406.395 -116.748C412.082 -137.838 413.953 -159.796 412.113 -183.876C408.555 -230.429 391.143 -278.597 375.778 -321.09C358.893 -368.107 328.717 -402.31 297.024 -410.346C287.687 -412.715 278.556 -412.704 269.888 -410.381L269.892 -410.382Z" fill="#84B5FF"/>
<path d="M36.1036 110.919C31.7884 112.075 27.5544 113.152 23.3881 114.15C-19.6376 124.457 -52.7186 125.993 -74.9403 118.715C-96.6795 111.594 -107.349 96.0961 -106.656 72.6517C-106.678 0.916939 -98.4273 -54.9279 -92.4014 -95.7011C-89.8049 -113.273 -87.5628 -128.446 -86.7381 -140.237C-85.3652 -159.467 -69.3117 -186.258 -43.8014 -211.895C-17.1963 -238.629 15.3547 -259.919 45.5056 -270.297C75.6608 -280.061 111.365 -297.074 148.77 -319.502C178.793 -337.503 208.696 -358.277 230.816 -376.495C244.451 -387.709 260.461 -391.287 277.114 -386.834C306.166 -379.07 333.707 -347.872 348.992 -305.411C365.2 -260.889 378.856 -220.787 381.83 -180.914C383.467 -158.973 381.75 -138.933 376.584 -119.654C370.835 -98.1997 360.989 -78.211 346.484 -58.5518C333.932 -41.1351 308.137 -19.519 271.885 3.95809C237.204 26.4167 194.479 49.4084 151.576 68.698C110.668 87.0884 71.044 101.57 36.0986 110.933L36.1036 110.919ZM251.137 -386.05C244.205 -384.193 237.605 -380.732 231.484 -375.698C209.327 -357.448 179.376 -336.64 149.311 -318.614C111.837 -296.146 76.0578 -279.094 45.8361 -269.313C15.8449 -258.987 -16.5584 -237.793 -43.0503 -211.168C-68.3891 -185.705 -84.3302 -159.16 -85.6836 -140.172C-86.5109 -128.341 -88.7568 -113.149 -91.3572 -95.5588C-97.3784 -54.8177 -105.623 0.981663 -105.599 72.6587C-106.278 95.607 -95.851 110.766 -74.6008 117.723C-52.5643 124.94 -19.6773 123.395 23.1521 113.136C60.9935 104.065 105.256 88.3715 151.153 67.7343C194.008 48.4663 236.683 25.5054 271.319 3.07251C307.461 -20.3313 333.156 -41.8547 345.636 -59.1731C360.067 -78.7288 369.855 -98.6008 375.572 -119.927C380.706 -139.093 382.413 -159.02 380.786 -180.84C377.821 -220.58 364.188 -260.609 348.008 -305.064C332.833 -347.211 305.563 -378.162 276.838 -385.837C268.001 -388.199 259.342 -388.253 251.144 -386.056L251.137 -386.05Z" fill="#84B5FF"/>
<path d="M37.8112 88.4509C35.664 89.0262 33.5414 89.5774 31.4353 90.1066C-6.73954 99.7113 -36.0814 101.463 -55.7759 95.311C-74.5913 89.4332 -83.9941 76.3868 -83.7158 56.5264C-85.8629 -6.09348 -79.4741 -59.9493 -74.809 -99.272C-72.9594 -114.863 -71.3596 -128.33 -70.6573 -139.248C-69.3879 -158.434 -55.478 -183.173 -32.4986 -207.125C-9.03535 -231.58 20.531 -251.433 48.6267 -261.59C104.702 -280.259 174.328 -322.702 215.294 -354.234C227.636 -363.712 242.033 -366.48 256.929 -362.238C282.967 -354.823 307.57 -326.898 321.133 -289.356C335.058 -251.424 347.773 -214.353 350.413 -177.871C351.837 -158.203 350.285 -140.204 345.674 -122.858C340.551 -103.585 331.81 -85.6198 318.958 -67.9291C307.726 -51.9382 284.704 -32.1468 252.39 -10.705C221.628 9.70525 183.611 30.6794 145.342 48.3539C107.119 66.0028 70.1068 79.7973 37.8123 88.455L37.8112 88.4509ZM232.33 -361.744C226.565 -360.199 221.047 -357.437 215.893 -353.48C174.863 -321.9 105.119 -279.386 48.9487 -260.687C21.0034 -250.584 -8.42661 -230.82 -31.7881 -206.467C-54.6144 -182.675 -68.4232 -158.156 -69.6769 -139.195C-70.382 -128.253 -71.9827 -114.773 -73.8331 -99.1686C-78.4977 -59.8768 -84.8797 -6.06241 -82.7363 56.5101C-83.0063 75.9199 -73.834 88.6544 -55.4708 94.3896C-35.9511 100.487 -6.78856 98.7309 31.2066 89.17C64.8999 80.6826 104.232 66.2753 144.937 47.4734C183.158 29.8204 221.13 8.87605 251.853 -11.5108C284.07 -32.8868 306.999 -52.5877 318.168 -68.4866C330.957 -86.0812 339.645 -103.944 344.737 -123.099C349.323 -140.342 350.862 -158.237 349.449 -177.798C346.819 -214.159 334.123 -251.16 320.224 -289.025C306.765 -326.283 282.414 -353.98 256.666 -361.31C248.3 -363.693 240.094 -363.815 232.336 -361.736L232.33 -361.744Z" fill="#84B5FF"/>
<path d="M39.7078 66.0424L39.4711 66.1059C6.1483 75.0127 -19.4544 76.9803 -36.6207 71.9574C-52.5155 67.3103 -60.6403 56.691 -60.768 40.3989C-65.3268 -14.1765 -60.5828 -67.5256 -57.1184 -106.478C-56.0336 -118.677 -55.0946 -129.211 -54.5614 -138.269C-53.4158 -157.135 -41.247 -180.498 -21.1849 -202.363C-0.833297 -224.542 25.7556 -242.964 51.7618 -252.895C75.9248 -261.216 103.604 -274.039 134.05 -291.007C156.951 -303.772 180.909 -318.706 199.786 -331.985C210.842 -339.734 223.636 -341.69 236.799 -337.638C259.814 -330.556 281.456 -305.905 293.281 -273.304C305.038 -241.621 316.703 -207.918 319.004 -174.827C320.212 -157.427 318.828 -141.477 314.77 -126.055C310.272 -108.967 302.638 -93.0174 291.434 -77.3023C271.779 -48.421 210.552 -6.07972 139.091 28.0495C103.621 44.9915 69.2623 58.1233 39.7078 66.0424ZM213.437 -337.476C208.856 -336.248 204.449 -334.171 200.297 -331.26C181.397 -317.967 157.405 -303.01 134.48 -290.234C103.991 -273.242 76.2591 -260.4 52.0599 -252.065C26.1958 -242.185 -0.266219 -223.854 -20.5274 -201.769C-40.455 -180.051 -52.5349 -156.888 -53.6718 -138.221C-54.2069 -129.154 -55.1437 -118.613 -56.2316 -106.408C-59.6954 -67.4864 -64.4337 -14.1828 -59.8777 40.3494C-59.7503 56.2415 -51.8399 66.5754 -36.3647 71.1019C-19.3585 76.0754 6.07948 74.108 39.2403 65.2445L39.477 65.1811C68.9775 57.2765 103.279 44.1643 138.701 27.2439C210.032 -6.82399 271.109 -49.0417 290.692 -77.8113C301.838 -93.4448 309.427 -109.299 313.899 -126.283C317.93 -141.606 319.307 -157.466 318.108 -174.767C315.816 -207.742 304.169 -241.375 292.436 -273.003C280.701 -305.351 259.278 -329.797 236.526 -336.796C228.593 -339.238 220.791 -339.451 213.444 -337.482L213.437 -337.476Z" fill="#84B5FF"/>
<path d="M41.7368 43.7786C16.0531 50.6605 -3.85531 52.3156 -17.4942 48.695C-30.4627 45.2508 -37.3034 37.048 -37.8291 24.3045C-45.5015 -23.2516 -42.0552 -78.8686 -39.5392 -119.484C-39.146 -125.858 -38.7729 -131.874 -38.4809 -137.281C-37.4372 -156.128 -27.2799 -177.546 -9.88245 -197.593C7.6628 -217.803 30.6623 -234.353 54.8814 -244.192C71.8178 -250.278 118.297 -268.829 184.268 -309.725C194.052 -315.757 205.271 -316.9 216.714 -313.016C236.673 -306.244 255.335 -284.874 265.417 -257.248C275.118 -231.459 285.631 -201.461 287.583 -171.78C289.65 -140.411 281.902 -112.575 263.901 -86.6734C255.294 -73.5092 237.816 -57.3526 213.37 -39.9534C190.086 -23.3842 162.234 -6.87003 132.824 7.80195C102.451 22.9517 72.9415 34.8415 47.483 42.1818C45.5368 42.7428 43.6182 43.2745 41.7327 43.7797L41.7368 43.7786ZM194.429 -313.269C191.065 -312.368 187.807 -310.954 184.701 -309.041C174.146 -302.498 152.623 -289.508 127.064 -276.044C100.232 -261.905 76.0482 -250.936 55.1764 -243.44C31.0899 -233.654 8.2018 -217.187 -9.2572 -197.07C-26.5356 -177.16 -36.6234 -155.916 -37.6571 -137.246C-37.9491 -131.84 -38.3211 -125.819 -38.7132 -119.441C-41.2286 -78.8571 -44.6723 -23.2804 -37.0083 24.1944L-37.0045 24.2418C-36.505 36.6054 -29.8666 44.5679 -17.2727 47.9103C-2.98212 51.7036 19.336 49.4556 47.2649 41.4006C72.6776 34.0726 102.136 22.2054 132.465 7.07617C161.835 -7.57649 189.653 -24.0683 212.904 -40.6111C237.269 -57.949 254.669 -74.0318 263.23 -87.1178C281.129 -112.869 288.827 -140.542 286.777 -171.718C284.831 -201.29 274.34 -231.224 264.658 -256.957C254.656 -284.367 236.187 -305.547 216.454 -312.243C208.893 -314.811 201.43 -315.136 194.44 -313.263L194.429 -313.269Z" fill="#84B5FF"/>
<path d="M44.6113 21.561C26.3744 26.4475 11.6481 27.8394 1.61826 25.5772C-8.45447 23.3044 -14.0047 17.4592 -14.8833 8.19956C-27.3618 -33.0047 -23.8798 -105.384 -22.3967 -136.298C-20.4732 -174.921 12.5904 -215.712 58.0059 -235.49C94.6064 -249.359 136.373 -270.828 161.328 -283.651C163.977 -285.012 166.466 -286.29 168.763 -287.468C177.3 -291.808 186.98 -292.112 196.743 -288.354C213.604 -281.864 229.241 -263.793 237.558 -241.19C246.328 -218.312 254.65 -193.7 256.168 -168.73C257.788 -142.085 251.316 -118.31 236.375 -96.0414C222.022 -72.9198 178.919 -40.0766 126.563 -12.3766C101.388 0.940707 76.8154 11.5692 55.5013 18.3617C51.7484 19.5563 48.1135 20.6269 44.6082 21.5662L44.6113 21.561ZM175.221 -289.167C173.123 -288.605 171.081 -287.821 169.098 -286.815C166.8 -285.641 164.315 -284.364 161.667 -282.999C136.701 -270.169 94.9117 -248.685 58.2863 -234.809C13.1339 -215.145 -19.7426 -174.62 -21.6531 -136.264C-23.1398 -105.38 -26.6184 -33.0544 -14.1604 8.02344L-14.1417 8.09318C-13.3104 17.027 -7.95262 22.6688 1.78762 24.8636C13.6177 27.5315 32.1181 25.0404 55.2832 17.664C76.5569 10.8868 101.09 0.277587 126.221 -13.0193C178.464 -40.6624 221.457 -73.4013 235.754 -96.4291C268.934 -145.876 254.497 -194.921 236.869 -240.921C228.618 -263.341 213.141 -281.248 196.475 -287.662C189.183 -290.469 181.951 -290.962 175.227 -289.16L175.221 -289.167Z" fill="#84B5FF"/>
<path d="M47.9395 -0.272707C36.7922 2.7142 27.5028 3.7966 20.7724 2.73389C13.5249 1.58555 9.25156 -1.98616 8.0725 -7.88162C1.45315 -18.2318 -3.04664 -37.6999 -5.30891 -65.7461C-6.95613 -86.1808 -7.32189 -111.535 -6.30786 -135.311C-4.62381 -173.466 20.5877 -207.661 61.135 -226.785C75.57 -232.653 90.5145 -239.062 104.968 -245.26C123.662 -253.276 141.318 -260.842 153.262 -265.212C163.326 -268.849 174.819 -266.443 185.622 -258.44C195.863 -250.854 204.635 -238.715 209.703 -225.136C221.875 -194.211 224.14 -177.12 224.756 -165.684C225.935 -143.775 220.73 -124.058 208.85 -105.415C197.082 -85.06 163.184 -57.1012 120.384 -32.4629C93.0448 -16.7237 67.6021 -5.53688 47.9406 -0.26861L47.9395 -0.272707ZM155.673 -265.282C154.938 -265.085 154.212 -264.855 153.489 -264.596C141.561 -260.235 123.917 -252.672 105.232 -244.658C90.774 -238.459 75.8243 -232.053 61.4017 -226.188C21.0999 -207.178 -3.97287 -173.197 -5.64371 -135.292C-6.65493 -111.538 -6.29273 -86.2135 -4.64794 -65.8045C-2.39276 -37.818 2.0903 -18.4289 8.66753 -8.18612L8.69953 -8.13315L8.71491 -8.07576C9.81532 -2.44057 13.9052 0.978133 20.8791 2.0855C39.3357 5.01308 77.3373 -8.44435 120.049 -33.0325C162.753 -57.6143 196.56 -85.4785 208.28 -105.75C220.091 -124.282 225.259 -143.87 224.09 -165.642C222.925 -187.318 215.457 -208.694 209.078 -224.894C204.056 -238.367 195.362 -250.399 185.221 -257.91C175.38 -265.199 164.978 -267.771 155.674 -265.278L155.673 -265.282Z" fill="#84B5FF"/>
</g>
</svg>
